<?xml version="1.0" encoding="iso-8859-1"?>
<!-- Generator: Adobe Illustrator 19.0.0, SVG Export Plug-In . SVG Version: 6.00 Build 0)  -->
<svg version="1.1" id="Capa_1" xmlns="http://www.w3.org/2000/svg" xmlns:xlink="http://www.w3.org/1999/xlink" x="0px" y="0px"
	 viewBox="0 0 480.039 480.039" style="enable-background:new 0 0 480.039 480.039;" xml:space="preserve">
<path style="fill:#FCF05A;" d="M472.008,184.017v112h-24l24,48l-72-48h-104c-17.673,0-32-14.327-32-32v-80c0-17.673,14.327-32,32-32
	h144C457.681,152.017,472.008,166.344,472.008,184.017z"/>
<g>
	<path style="fill:#FDBD40;" d="M8.008,56.017v112h24l-24,48l72-48h104c17.673,0,32-14.327,32-32v-80c0-17.673-14.327-32-32-32h-144
		C22.335,24.017,8.008,38.343,8.008,56.017z"/>
	<path style="fill:#FDBD40;" d="M8.008,296.017v112h24l-24,48l72-48h104c17.673,0,32-14.327,32-32v-80c0-17.673-14.327-32-32-32
		h-144C22.335,264.017,8.008,278.343,8.008,296.017z"/>
</g>
<g>
	<g>
		<path id="SVGCleanerId_0" style="fill:#5F79BA;" d="M40.008,88.017h16v16h-16V88.017z"/>
	</g>
	<g>
		<path id="SVGCleanerId_1" style="fill:#5F79BA;" d="M72.008,88.017h16v16h-16V88.017z"/>
	</g>
	<g>
		<path id="SVGCleanerId_2" style="fill:#5F79BA;" d="M104.008,88.017h16v16h-16V88.017z"/>
	</g>
	<g>
		<path id="SVGCleanerId_3" style="fill:#5F79BA;" d="M136.008,88.017h16v16h-16V88.017z"/>
	</g>
	<g>
		<path id="SVGCleanerId_4" style="fill:#5F79BA;" d="M168.008,88.017h16v16h-16V88.017z"/>
	</g>
	<g>
		<path id="SVGCleanerId_5" style="fill:#5F79BA;" d="M328.008,216.017h16v16h-16V216.017z"/>
	</g>
	<g>
		<path id="SVGCleanerId_6" style="fill:#5F79BA;" d="M296.008,216.017h16v16h-16V216.017z"/>
	</g>
	<g>
		<path id="SVGCleanerId_7" style="fill:#5F79BA;" d="M360.008,216.017h16v16h-16V216.017z"/>
	</g>
	<g>
		<path id="SVGCleanerId_8" style="fill:#5F79BA;" d="M392.008,216.017h16v16h-16V216.017z"/>
	</g>
	<g>
		<path id="SVGCleanerId_9" style="fill:#5F79BA;" d="M424.008,216.017h16v16h-16V216.017z"/>
	</g>
	<g>
		<path id="SVGCleanerId_10" style="fill:#5F79BA;" d="M40.008,328.017h16v16h-16V328.017z"/>
	</g>
	<g>
		<path id="SVGCleanerId_11" style="fill:#5F79BA;" d="M72.008,328.017h16v16h-16V328.017z"/>
	</g>
	<g>
		<path id="SVGCleanerId_12" style="fill:#5F79BA;" d="M104.008,328.017h16v16h-16V328.017z"/>
	</g>
	<g>
		<path id="SVGCleanerId_13" style="fill:#5F79BA;" d="M136.008,328.017h16v16h-16V328.017z"/>
	</g>
	<g>
		<path id="SVGCleanerId_14" style="fill:#5F79BA;" d="M168.008,328.017h16v16h-16V328.017z"/>
	</g>
</g>
<path id="SVGCleanerId_0_1_" d="M40.008,88.017h16v16h-16V88.017z"/>
<path id="SVGCleanerId_1_1_" d="M72.008,88.017h16v16h-16V88.017z"/>
<path id="SVGCleanerId_2_1_" d="M104.008,88.017h16v16h-16V88.017z"/>
<path id="SVGCleanerId_3_1_" d="M136.008,88.017h16v16h-16V88.017z"/>
<path id="SVGCleanerId_4_1_" d="M168.008,88.017h16v16h-16V88.017z"/>
<path id="SVGCleanerId_5_1_" d="M328.008,216.017h16v16h-16V216.017z"/>
<path id="SVGCleanerId_6_1_" d="M296.008,216.017h16v16h-16V216.017z"/>
<path id="SVGCleanerId_7_1_" d="M360.008,216.017h16v16h-16V216.017z"/>
<path id="SVGCleanerId_8_1_" d="M392.008,216.017h16v16h-16V216.017z"/>
<path id="SVGCleanerId_9_1_" d="M424.008,216.017h16v16h-16V216.017z"/>
<path id="SVGCleanerId_10_1_" d="M40.008,328.017h16v16h-16V328.017z"/>
<path id="SVGCleanerId_11_1_" d="M72.008,328.017h16v16h-16V328.017z"/>
<path id="SVGCleanerId_12_1_" d="M104.008,328.017h16v16h-16V328.017z"/>
<path id="SVGCleanerId_13_1_" d="M136.008,328.017h16v16h-16V328.017z"/>
<path id="SVGCleanerId_14_1_" d="M168.008,328.017h16v16h-16V328.017z"/>
<path d="M8.008,176.017h11.056L0.848,212.441c-1.978,3.951-0.379,8.757,3.572,10.735c2.572,1.288,5.637,1.096,8.028-0.503
	l69.96-46.656h101.6c22.08-0.026,39.974-17.92,40-40v-80c-0.026-22.08-17.92-39.974-40-40h-144c-22.08,0.026-39.974,17.92-40,40v112
	C0.008,172.435,3.59,176.017,8.008,176.017z M16.008,56.017c0-13.255,10.745-24,24-24h144c13.255,0,24,10.745,24,24v80
	c0,13.255-10.745,24-24,24h-104c-1.58,0.003-3.124,0.47-4.44,1.344L28.64,192.649l10.568-21.056
	c1.975-3.952,0.372-8.757-3.58-10.732c-1.124-0.562-2.364-0.851-3.62-0.844h-16L16.008,56.017z"/>
<path d="M8.008,416.017h11.056L0.848,452.441c-1.978,3.951-0.379,8.757,3.572,10.735c2.572,1.288,5.637,1.096,8.028-0.503
	l69.96-46.656h101.6c22.08-0.026,39.974-17.92,40-40v-80c-0.026-22.08-17.92-39.974-40-40h-144c-22.08,0.026-39.974,17.92-40,40v112
	C0.008,412.435,3.59,416.017,8.008,416.017z M16.008,296.017c0-13.255,10.745-24,24-24h144c13.255,0,24,10.745,24,24v80
	c0,13.255-10.745,24-24,24h-104c-1.58,0.003-3.124,0.47-4.44,1.344L28.64,432.649l10.568-21.056
	c1.975-3.952,0.372-8.757-3.58-10.732c-1.124-0.562-2.364-0.851-3.62-0.844h-16L16.008,296.017z"/>
<path d="M440.008,144.017h-144c-22.08,0.026-39.974,17.92-40,40v80c0.026,22.08,17.92,39.974,40,40h101.6l69.984,46.656
	c3.673,2.456,8.641,1.469,11.097-2.204c1.599-2.391,1.791-5.456,0.503-8.028l-18.24-36.424h11.056c4.418,0,8-3.582,8-8v-112
	C479.982,161.936,462.089,144.043,440.008,144.017L440.008,144.017z M464.008,288.017h-16c-4.418-0.024-8.02,3.538-8.044,7.956
	c-0.007,1.256,0.282,2.496,0.844,3.62l10.528,21.056l-46.928-31.288c-1.305-0.867-2.834-1.334-4.4-1.344h-104
	c-13.255,0-24-10.745-24-24v-80c0-13.255,10.745-24,24-24h144c13.255,0,24,10.745,24,24V288.017z"/>
<g>
</g>
<g>
</g>
<g>
</g>
<g>
</g>
<g>
</g>
<g>
</g>
<g>
</g>
<g>
</g>
<g>
</g>
<g>
</g>
<g>
</g>
<g>
</g>
<g>
</g>
<g>
</g>
<g>
</g>
</svg>
